:SAMPLES-PER-SECOND 30
:FULLY-SPECIFIED
:DEGREES
399
root  21.7644 40.3738 22.4953 179.928 21.8217 176.864
RightUpLeg  -2.35258 -16.7618 -14.3454
RightLeg  9.66569 -38.527 2.81862
RightFoot  -0.162502 -0.371887 3.7861
RightToes  0.00048216 0.542163 -0.142577
Spine  11.6179 3.22512 11.919
Spine1  7.74603 7.19343 -10.7061
HEad  -15.6208 48.6362 -28.9026
LeftShoulder1  8.89267 -13.6054 -45.3062
LeftArm  -21.6131 27.6364 -22.3643
LeftForeArm  103.424 -78.5016 -113.654
LeftHand  -0.25398 0.0180481 5.50724
RightShoulder  5.19749 9.72108 33.3574
RightArm  -5.69313 -21.5338 24.957
RightForeArm  38.6263 77.7742 94.2722
RightHand  0.527886 -18.6443 -5.57134
LeftUpLeg  -16.7218 19.7048 2.11344
LeftLeg  13.3205 5.17534 0.707625
LeftFoot  -0.450115 0.301972 -3.10137
LeftToes  1.06244e-005 4.65856e-005 -8.18505e-006
400
root  20.6294 40.3599 21.8822 -179.555 19.1151 176.687
RightUpLeg  -0.845214 -17.2118 -16.6272
RightLeg  7.24897 -40.1771 3.61594
RightFoot  1.26798 -0.653539 5.98974
RightToes  0.00048216 0.542163 -0.142577
Spine  9.51576 3.57341 11.5855
Spine1  7.7721 7.5478 -11.4452
HEad  -14.0182 48.2412 -27.3851
LeftShoulder1  8.83351 -13.3728 -45.6361
LeftArm  -22.6204 28.4749 -22.678
LeftForeArm  103.91 -78.4341 -114.319
LeftHand  -0.25398 0.0180481 5.50724
RightShoulder  5.19636 9.61383 33.6685
RightArm  -5.59653 -21.3504 25.0243
RightForeArm  39.4077 77.7498 95.3124
RightHand  0.566069 -19.5341 -5.57021
LeftUpLeg  -14.631 19.0902 4.89135
LeftLeg  12.4259 12.7212 1.49257
LeftFoot  -1.58 -0.0712657 0.967063
LeftToes  1.06244e-005 4.65856e-005 -8.18505e-006
401
root  19.4003 40.2828 21.172 -179.471 15.8245 176.468
RightUpLeg  1.76566 -17.5765 -19.298
RightLeg  4.60583 -41.7129 4.55086
RightFoot  2.26272 -1.0579 8.96933
RightToes  0.00048216 0.542163 -0.142577
Spine  7.61088 3.73682 11.3242
Spine1  8.00187 7.73062 -12.0638
HEad  -11.6315 47.6633 -25.0524
LeftShoulder1  8.73421 -13.1705 -45.6714
LeftArm  -22.8386 28.8591 -23.2941
LeftForeArm  103.301 -78.4813 -113.754
LeftHand  -0.25398 0.0180481 5.50724
RightShoulder  5.14286 9.42938 33.8183
RightArm  -5.92992 -21.5573 25.0646
RightForeArm  40.2404 77.7264 96.2756
RightHand  0.573519 -20.5308 -5.30847
LeftUpLeg  -12.2301 20.4987 6.54453
LeftLeg  12.4822 21.0467 2.51988
LeftFoot  -2.89956 -0.156899 2.31461
LeftToes  1.06244e-005 4.65856e-005 -8.18505e-006
402
root  18.0465 40.1042 20.3903 -179.424 11.2312 175.629
RightUpLeg  5.25208 -18.4645 -23.1203
RightLeg  1.81954 -43.0596 5.99334
RightFoot  2.98292 -1.4928 12.0259
RightToes  0.00048216 0.542163 -0.142577
Spine  5.41342 3.62473 10.4599
Spine1  8.54411 7.56336 -12.5691
HEad  -8.73627 46.0071 -22.0521
LeftShoulder1  8.65447 -13.0744 -45.511
LeftArm  -21.9483 28.6777 -23.8131
LeftForeArm  103.354 -78.5058 -113.591
LeftHand  -0.25398 0.0180481 5.50724
RightShoulder  5.04114 9.24168 33.6074
RightArm  -6.74029 -22.8236 24.9534
RightForeArm  43.4819 77.653 99.1183
RightHand  0.529761 -20.7124 -4.93361
LeftUpLeg  -10.5262 23.0007 6.27186
LeftLeg  13.4628 27.3062 3.37113
LeftFoot  -2.74475 0.0436957 -0.290807
LeftToes  1.06244e-005 4.65856e-005 -8.18505e-006
403
root  16.5748 39.8741 19.5714 -179.383 5.77388 174.083
RightUpLeg  8.6278 -19.5851 -27.7819
RightLeg  0.770337 -42.9685 6.14478
RightFoot  2.18256 -1.54709 13.1374
RightToes  0.00048216 0.542163 -0.142577
Spine  3.49304 3.39973 8.84968
Spine1  8.97971 7.22912 -12.8068
HEad  -6.26007 43.055 -19.4718
LeftShoulder1  8.65073 -13.0764 -45.4851
LeftArm  -19.8864 27.8065 -23.6932
LeftForeArm  103.748 -78.5133 -113.681
LeftHand  -0.25398 0.0180481 5.50724
RightShoulder  4.93999 9.11599 33.2026
RightArm  -7.72678 -25.3723 24.3759
RightForeArm  49.7236 77.3833 105.088
RightHand  0.482199 -20.1687 -4.73243
LeftUpLeg  -9.82893 27.9476 3.67944
LeftLeg  14.7001 26.395 3.07586
LeftFoot  -1.9497 0.300056 -3.55967
LeftToes  1.06244e-005 4.65856e-005 -8.18505e-006
404
root  15.0318 39.6691 18.7549 -179.707 0.138321 172.41
RightUpLeg  10.7725 -19.9123 -31.7313
RightLeg  3.60621 -39.5879 2.58612
RightFoot  -1.50764 -0.946088 10.6258
RightToes  0.00048216 0.542163 -0.142577
Spine  2.86169 3.11366 7.14397
Spine1  8.891 6.84118 -12.5695
HEad  -4.7579 39.5096 -17.9954
LeftShoulder1  8.70282 -13.097 -45.7101
LeftArm  -17.1005 26.1243 -22.9791
LeftForeArm  102.17 -78.6636 -111.929
LeftHand  -0.25398 0.0180481 5.50724
RightShoulder  4.88364 9.01544 33.0676
RightArm  -8.68095 -28.5029 23.3524
RightForeArm  56.2304 76.8647 112.022
RightHand  0.472539 -19.7477 -4.77422
LeftUpLeg  -9.80276 35.6822 -0.787938
LeftLeg  16.0816 16.7075 2.27789
LeftFoot  -2.89152 0.281087 -3.49685
LeftToes  1.06244e-005 4.65856e-005 -8.18505e-006
405
root  13.5169 39.5311 18.0194 179.474 -5.70946 171.112
RightUpLeg  11.9849 -19.2206 -33.7089
RightLeg  8.36738 -31.98 -2.41035
RightFoot  -6.95781 -0.25879 5.35446
RightToes  0.00048216 0.542163 -0.142577
Spine  3.55211 2.53983 5.79617
Spine1  8.68711 6.21506 -12.1505
HEad  -3.89785 36.1407 -17.5015
LeftShoulder1  8.81734 -13.148 -46.1842
LeftArm  -14.4069 23.6427 -22.1611
LeftForeArm  96.9592 -79.0186 -106.614
LeftHand  -0.25398 0.0180481 5.50724
RightShoulder  4.85107 8.87214 33.2553
RightArm  -9.83961 -31.0443 22.5734
RightForeArm  59.4801 76.4546 115.935
RightHand  0.483493 -19.5764 -4.90853
LeftUpLeg  -9.27041 38.4475 -5.13914
LeftLeg  17.6451 8.11687 2.48511
LeftFoot  -5.60235 0.0729596 -0.718051
LeftToes  1.06244e-005 4.65856e-005 -8.18505e-006
